<svg id="visual" viewBox="0 0 900 600" width="900" height="600" xmlns="http://www.w3.org/2000/svg" xmlns:xlink="http://www.w3.org/1999/xlink" version="1.1"><rect x="0" y="0" width="900" height="600" fill="#002233"></rect><path d="M0 410L21.5 423.3C43 436.7 86 463.3 128.8 460.2C171.7 457 214.3 424 257.2 423.5C300 423 343 455 385.8 467.8C428.7 480.7 471.3 474.3 514.2 473.7C557 473 600 478 642.8 483.8C685.7 489.7 728.3 496.3 771.2 494.3C814 492.3 857 481.7 878.5 476.3L900 471L900 601L878.5 601C857 601 814 601 771.2 601C728.3 601 685.7 601 642.8 601C600 601 557 601 514.2 601C471.3 601 428.7 601 385.8 601C343 601 300 601 257.2 601C214.3 601 171.7 601 128.8 601C86 601 43 601 21.5 601L0 601Z" fill="#0066FF" stroke-linecap="round" stroke-linejoin="miter"></path></svg>